# xmcd
# 
# Track frame offsets:
#     150
#     15109
#     31533
#     45819
#     62239
#     81318
#     98193
#     113416
#     130795
#     147143
#     164372
# 
# Disc length: 2441
# 
# Revision: 4
# Processed by: cddbd v1.5.2PL0 Copyright (c) Steve Scherf et al.
# Submitted via: fre:ac v1.1beta1pre4
# 
DISCID=7509870b
DTITLE=Ivan Zak - Bolja od najbolje
DYEAR=2012
DGENRE=CRO-POP
TTITLE0=Bolja od najbolje
TTITLE1=Tko mi te krade
TTITLE2=Zbogom pameti
TTITLE3=Naucila si me
TTITLE4=Ilegala
TTITLE5=Nepobjediva
TTITLE6=U tvome telefonu
TTITLE7=Kosa s mog kaputa
TTITLE8=Slazi jos veceras
TTITLE9=Neostvarena zelja
TTITLE10=Tko mi te krade (remix)
EXTD=DJ-Technics
EXTT0=
EXTT1=
EXTT2=
EXTT3=
EXTT4=
EXTT5=
EXTT6=
EXTT7=
EXTT8=
EXTT9=
EXTT10=
PLAYORDER=
